<?xml version="1.0" encoding="iso-8859-1"?>
<!-- Generator: Adobe Illustrator 21.0.0, SVG Export Plug-In . SVG Version: 6.00 Build 0)  -->
<svg version="1.1" id="Capa_1" xmlns="http://www.w3.org/2000/svg" xmlns:xlink="http://www.w3.org/1999/xlink" x="0px" y="0px"
	 viewBox="0 0 992.903 992.903" style="enable-background:new 0 0 992.903 992.903;" xml:space="preserve">
<g>
	<g id="Tablet_Application-13">
		
			<linearGradient id="SVGID_1_" gradientUnits="userSpaceOnUse" x1="-13.7848" y1="808.871" x2="1004.3051" y2="808.871" gradientTransform="matrix(1 0 0 -1 0 990.9032)">
			<stop  offset="0" style="stop-color:#FFF33B"/>
			<stop  offset="0.014" style="stop-color:#FEE72E"/>
			<stop  offset="0.042" style="stop-color:#FED51B"/>
			<stop  offset="0.07" style="stop-color:#FDCA10"/>
			<stop  offset="0.1" style="stop-color:#FDC70C"/>
			<stop  offset="0.4" style="stop-color:#F3903F"/>
			<stop  offset="0.8" style="stop-color:#ED683C"/>
			<stop  offset="1" style="stop-color:#E93E3A"/>
		</linearGradient>
		<rect x="744.677" y="165.484" style="fill:url(#SVGID_1_);" width="33.097" height="33.097"/>
		
			<linearGradient id="SVGID_2_" gradientUnits="userSpaceOnUse" x1="-13.7848" y1="808.871" x2="1004.3051" y2="808.871" gradientTransform="matrix(1 0 0 -1 0 990.9032)">
			<stop  offset="0" style="stop-color:#FFF33B"/>
			<stop  offset="0.014" style="stop-color:#FEE72E"/>
			<stop  offset="0.042" style="stop-color:#FED51B"/>
			<stop  offset="0.07" style="stop-color:#FDCA10"/>
			<stop  offset="0.1" style="stop-color:#FDC70C"/>
			<stop  offset="0.4" style="stop-color:#F3903F"/>
			<stop  offset="0.8" style="stop-color:#ED683C"/>
			<stop  offset="1" style="stop-color:#E93E3A"/>
		</linearGradient>
		<rect x="678.484" y="165.484" style="fill:url(#SVGID_2_);" width="33.097" height="33.097"/>
		
			<linearGradient id="SVGID_3_" gradientUnits="userSpaceOnUse" x1="-13.7848" y1="808.871" x2="1004.3051" y2="808.871" gradientTransform="matrix(1 0 0 -1 0 990.9032)">
			<stop  offset="0" style="stop-color:#FFF33B"/>
			<stop  offset="0.014" style="stop-color:#FEE72E"/>
			<stop  offset="0.042" style="stop-color:#FED51B"/>
			<stop  offset="0.07" style="stop-color:#FDCA10"/>
			<stop  offset="0.1" style="stop-color:#FDC70C"/>
			<stop  offset="0.4" style="stop-color:#F3903F"/>
			<stop  offset="0.8" style="stop-color:#ED683C"/>
			<stop  offset="1" style="stop-color:#E93E3A"/>
		</linearGradient>
		<rect x="612.29" y="165.484" style="fill:url(#SVGID_3_);" width="33.097" height="33.097"/>
		
			<linearGradient id="SVGID_4_" gradientUnits="userSpaceOnUse" x1="-13.7848" y1="808.871" x2="1004.3051" y2="808.871" gradientTransform="matrix(1 0 0 -1 0 990.9032)">
			<stop  offset="0" style="stop-color:#FFF33B"/>
			<stop  offset="0.014" style="stop-color:#FEE72E"/>
			<stop  offset="0.042" style="stop-color:#FED51B"/>
			<stop  offset="0.07" style="stop-color:#FDCA10"/>
			<stop  offset="0.1" style="stop-color:#FDC70C"/>
			<stop  offset="0.4" style="stop-color:#F3903F"/>
			<stop  offset="0.8" style="stop-color:#ED683C"/>
			<stop  offset="1" style="stop-color:#E93E3A"/>
		</linearGradient>
		<rect x="215.129" y="165.484" style="fill:url(#SVGID_4_);" width="33.097" height="33.097"/>
		
			<linearGradient id="SVGID_5_" gradientUnits="userSpaceOnUse" x1="-13.7848" y1="64.1936" x2="1004.3051" y2="64.1936" gradientTransform="matrix(1 0 0 -1 0 990.9032)">
			<stop  offset="0" style="stop-color:#FFF33B"/>
			<stop  offset="0.014" style="stop-color:#FEE72E"/>
			<stop  offset="0.042" style="stop-color:#FED51B"/>
			<stop  offset="0.07" style="stop-color:#FDCA10"/>
			<stop  offset="0.1" style="stop-color:#FDC70C"/>
			<stop  offset="0.4" style="stop-color:#F3903F"/>
			<stop  offset="0.8" style="stop-color:#ED683C"/>
			<stop  offset="1" style="stop-color:#E93E3A"/>
		</linearGradient>
		<path style="fill:url(#SVGID_5_);" d="M529.548,910.161h-66.194c-9.139,0-16.548,7.409-16.548,16.548
			c0,9.139,7.409,16.548,16.548,16.548h66.194c9.139,0,16.548-7.409,16.548-16.548C546.097,917.57,538.688,910.161,529.548,910.161z
			"/>
		
			<linearGradient id="SVGID_6_" gradientUnits="userSpaceOnUse" x1="-13.7848" y1="494.4516" x2="1004.3051" y2="494.4516" gradientTransform="matrix(1 0 0 -1 0 990.9032)">
			<stop  offset="0" style="stop-color:#FFF33B"/>
			<stop  offset="0.014" style="stop-color:#FEE72E"/>
			<stop  offset="0.042" style="stop-color:#FED51B"/>
			<stop  offset="0.07" style="stop-color:#FDCA10"/>
			<stop  offset="0.1" style="stop-color:#FDC70C"/>
			<stop  offset="0.4" style="stop-color:#F3903F"/>
			<stop  offset="0.8" style="stop-color:#ED683C"/>
			<stop  offset="1" style="stop-color:#E93E3A"/>
		</linearGradient>
		<path style="fill:url(#SVGID_6_);" d="M943.258,496.452H926.71V380.613c-0.055-45.674-37.068-82.687-82.742-82.742V99.29
			c0-58.449-34.023-99.29-82.742-99.29H231.677c-45.674,0.055-82.687,37.068-82.742,82.742v281.323h33.097V132.387h628.839v165.484
			h-33.097c-31.121,0.104-59.538,17.707-73.491,45.525c-14.396-6.263-29.695-10.201-45.326-11.667
			c-45.26-89.769-154.723-125.851-244.493-80.591c-46.279,23.333-80.417,65.287-93.856,115.342
			c-80.919,14.763-134.549,92.329-119.786,173.248c14.763,80.919,92.329,134.549,173.248,119.786
			c24.507-4.471,47.501-15.018,66.878-30.676h187.89v182.032c0,9.139,7.409,16.548,16.548,16.548h165.484v33.097H182.032V628.839
			h-33.097v281.323c0.055,45.674,37.068,82.687,82.742,82.742h529.548c44.548,0,82.742-36.406,82.742-66.194v-99.29h132.387
			c9.139,0,16.548-7.409,16.548-16.548V546.097C992.903,518.679,970.676,496.452,943.258,496.452z M182.032,99.29V82.742
			c0-27.418,22.227-49.645,49.645-49.645h529.548c30.151,0,49.645,25.981,49.645,66.194H182.032z M761.226,959.806H231.677
			c-27.418,0-49.645-22.227-49.645-49.645l0,0v-16.548h628.839v33.097C810.871,936.639,789.904,959.806,761.226,959.806z
			 M777.774,330.968h66.194c27.418,0,49.645,22.227,49.645,49.645v115.839h-16.548V380.613c0-18.279-14.818-33.097-33.097-33.097
			h-66.194c-18.279,0-33.097,14.818-33.097,33.097v115.839h-16.548V380.613C728.129,353.195,750.356,330.968,777.774,330.968z
			 M843.968,496.452h-66.194V380.613h66.194V496.452z M434.892,595.742c-4.02,0.001-7.903,1.466-10.922,4.121
			c-47.974,42.326-121.176,37.747-163.501-10.226c-42.326-47.974-37.747-121.176,10.226-163.501
			c18.18-16.039,40.933-25.97,65.055-28.394c7.249-0.72,13.174-6.094,14.596-13.239c16.056-80.673,94.47-133.055,175.142-116.999
			c47.914,9.536,88.105,41.965,107.554,86.781c2.577,5.909,8.35,9.783,14.794,9.929c16.539,0.393,32.8,4.344,47.676,11.584
			c-0.099,1.655-0.48,3.128-0.48,4.766v115.839h-16.548c-27.418,0-49.645,22.227-49.645,49.645v49.645L434.892,595.742z
			 M959.806,794.323H661.935V546.097c0-9.139,7.409-16.548,16.548-16.548h264.774c9.139,0,16.548,7.409,16.548,16.548V794.323z"/>
		
			<linearGradient id="SVGID_7_" gradientUnits="userSpaceOnUse" x1="-13.7848" y1="329.0497" x2="1004.3051" y2="329.0497" gradientTransform="matrix(1 0 0 -1 0 990.9032)">
			<stop  offset="0" style="stop-color:#FFF33B"/>
			<stop  offset="0.014" style="stop-color:#FEE72E"/>
			<stop  offset="0.042" style="stop-color:#FED51B"/>
			<stop  offset="0.07" style="stop-color:#FDCA10"/>
			<stop  offset="0.1" style="stop-color:#FDC70C"/>
			<stop  offset="0.4" style="stop-color:#F3903F"/>
			<stop  offset="0.8" style="stop-color:#ED683C"/>
			<stop  offset="1" style="stop-color:#E93E3A"/>
		</linearGradient>
		<path style="fill:url(#SVGID_7_);" d="M860.516,612.29c0.091-27.418-22.063-49.718-49.481-49.809
			c-27.418-0.091-49.718,22.063-49.809,49.481c-0.064,19.226,10.98,36.76,28.347,45.008l-27.487,82.494
			c-2.879,8.674,1.819,18.04,10.493,20.919c1.676,0.556,3.429,0.841,5.195,0.842h66.194c9.139-0.007,16.543-7.422,16.536-16.561
			c-0.001-1.773-0.288-3.535-0.848-5.217l-27.487-82.477C849.429,648.774,860.453,631.398,860.516,612.29z M810.871,595.742
			c9.139,0,16.548,7.409,16.548,16.548c0,9.139-7.409,16.548-16.548,16.548s-16.548-7.409-16.548-16.548
			C794.323,603.151,801.732,595.742,810.871,595.742z M800.743,728.129l10.128-30.416l10.128,30.416H800.743z"/>
		
			<linearGradient id="SVGID_8_" gradientUnits="userSpaceOnUse" x1="-13.7848" y1="428.2581" x2="1004.3051" y2="428.2581" gradientTransform="matrix(1 0 0 -1 0 990.9032)">
			<stop  offset="0" style="stop-color:#FFF33B"/>
			<stop  offset="0.014" style="stop-color:#FEE72E"/>
			<stop  offset="0.042" style="stop-color:#FED51B"/>
			<stop  offset="0.07" style="stop-color:#FDCA10"/>
			<stop  offset="0.1" style="stop-color:#FDC70C"/>
			<stop  offset="0.4" style="stop-color:#F3903F"/>
			<stop  offset="0.8" style="stop-color:#ED683C"/>
			<stop  offset="1" style="stop-color:#E93E3A"/>
		</linearGradient>
		<rect x="66.194" y="546.097" style="fill:url(#SVGID_8_);" width="115.839" height="33.097"/>
		
			<linearGradient id="SVGID_9_" gradientUnits="userSpaceOnUse" x1="-13.7848" y1="494.4516" x2="1004.3051" y2="494.4516" gradientTransform="matrix(1 0 0 -1 0 990.9032)">
			<stop  offset="0" style="stop-color:#FFF33B"/>
			<stop  offset="0.014" style="stop-color:#FEE72E"/>
			<stop  offset="0.042" style="stop-color:#FED51B"/>
			<stop  offset="0.07" style="stop-color:#FDCA10"/>
			<stop  offset="0.1" style="stop-color:#FDC70C"/>
			<stop  offset="0.4" style="stop-color:#F3903F"/>
			<stop  offset="0.8" style="stop-color:#ED683C"/>
			<stop  offset="1" style="stop-color:#E93E3A"/>
		</linearGradient>
		<rect x="33.097" y="479.903" style="fill:url(#SVGID_9_);" width="115.839" height="33.097"/>
		
			<linearGradient id="SVGID_10_" gradientUnits="userSpaceOnUse" x1="-13.7848" y1="560.6451" x2="1004.3051" y2="560.6451" gradientTransform="matrix(1 0 0 -1 0 990.9032)">
			<stop  offset="0" style="stop-color:#FFF33B"/>
			<stop  offset="0.014" style="stop-color:#FEE72E"/>
			<stop  offset="0.042" style="stop-color:#FED51B"/>
			<stop  offset="0.07" style="stop-color:#FDCA10"/>
			<stop  offset="0.1" style="stop-color:#FDC70C"/>
			<stop  offset="0.4" style="stop-color:#F3903F"/>
			<stop  offset="0.8" style="stop-color:#ED683C"/>
			<stop  offset="1" style="stop-color:#E93E3A"/>
		</linearGradient>
		<rect y="413.71" style="fill:url(#SVGID_10_);" width="115.839" height="33.097"/>
	</g>
</g>
<g>
</g>
<g>
</g>
<g>
</g>
<g>
</g>
<g>
</g>
<g>
</g>
<g>
</g>
<g>
</g>
<g>
</g>
<g>
</g>
<g>
</g>
<g>
</g>
<g>
</g>
<g>
</g>
<g>
</g>
</svg>
