<svg height="511pt" viewBox="-57 1 511 511.99894" width="511pt" xmlns="http://www.w3.org/2000/svg"><path d="m321.476562 66.496094v127.777344h-61.175781v-115.328126c0-11.8125-9.574219-21.390624-21.390625-21.390624h-80.089844c-11.816406 0-21.390624 9.578124-21.390624 21.390624v115.328126h-61.175782v-127.777344c0-36.71875 29.773438-66.496094 66.492188-66.496094h112.234375c36.71875 0 66.496093 29.777344 66.496093 66.496094zm0 0" fill="#edf0f5"/><path d="m321.480469 66.496094v127.773437h-61.183594v-115.324219c0-11.808593-9.574219-21.386718-21.386719-21.386718h-40.046875v-57.55468775h56.113281c36.726563 0 66.503907 29.76562475 66.503907 66.49218775zm0 0" fill="#d8dceb"/><path d="m351.527344 179.035156h-305.324219c-25.203125 0-45.703125 20.5-45.703125 45.703125v241.558594c0 25.199219 20.5 45.703125 45.703125 45.703125h305.324219c25.199218 0 45.703125-20.503906 45.703125-45.703125v-241.558594c0-25.203125-20.503907-45.703125-45.703125-45.703125zm0 0" fill="#ff8859"/><path d="m397.222656 224.738281v241.554688c0 25.207031-20.492187 45.703125-45.703125 45.703125h-152.65625v-332.960938h152.65625c25.210938 0 45.703125 20.507813 45.703125 45.703125zm0 0" fill="#ff6426"/><path d="m197.925781 456.339844c-21.230469-.503906-37.953125-18.371094-37.953125-39.609375v-56.988281c0-2.808594-1.140625-5.515626-3.210937-7.40625-42.007813-38.367188-15.015625-108.777344 42.101562-108.777344 34.488281 0 62.550781 28.058594 62.550781 62.546875 0 17.726562-7.605468 34.5-20.449218 46.230469-2.070313 1.890624-3.210938 4.597656-3.210938 7.40625v57.714843c0 21.757813-17.957031 39.398438-39.828125 38.882813zm.9375-182.3125c-17.6875 0-32.078125 14.390625-32.078125 32.078125 0 11.40625 6.148438 22.054687 16.050782 27.785156 4.707031 2.722656 7.605468 7.746094 7.605468 13.183594v70.386719c0 4.644531 3.777344 8.421874 8.421875 8.421874s8.425781-3.777343 8.425781-8.421874v-70.386719c0-5.4375 2.898438-10.460938 7.601563-13.183594 9.902344-5.730469 16.054687-16.378906 16.054687-27.785156 0-17.6875-14.394531-32.078125-32.082031-32.078125zm0 0" fill="#edf0f5"/><path d="m198.863281 243.558594v30.46875c17.691407 0 32.082031 14.390625 32.082031 32.082031 0 11.40625-6.152343 22.050781-16.054687 27.777344-4.703125 2.722656-7.609375 7.75-7.609375 13.191406v70.382813c0 4.644531-3.777344 8.421874-8.417969 8.421874v30.46875c21.441407 0 38.886719-17.449218 38.886719-38.890624v-57.714844c0-2.816406 1.140625-5.515625 3.222656-7.414063 12.835938-11.730469 20.441406-28.5 20.441406-46.222656 0-34.488281-28.058593-62.550781-62.550781-62.550781zm0 0" fill="#d8dceb"/></svg>